# xmcd CD database file
#
# Track frame offsets:
#	187
#	24025
#	44210
#
# Disc length: 905 seconds
#
# Revision: 0
# Processed by: cddbd v1.5.1PL2 Copyright (c) Steve Scherf et al.
# Submitted via: CDex 1.51
#
DISCID=1d038703
DTITLE=Ｃｌａｓｓ - 永遠の素顔〜カルピスウォーター’９４ＣＦイメージソング〜
DYEAR=1994
DGENRE=JPop
TTITLE0=永遠の素顔
TTITLE1=おやすみ
TTITLE2=永遠の素顔（Ｏｒｉｇｉｎａｌ　Ｋａｒａｏｋｅ）
EXTD=YEAR: 1994/5/16
EXTT0=
EXTT1=
EXTT2=
PLAYORDER=
